<svg xmlns="http://www.w3.org/2000/svg" xmlns:xlink="http://www.w3.org/1999/xlink" width="840" height="581.04"><rect width="840" height="581.04" rx="5" ry="5" class="a"/><svg y="0%" x="0%"><circle cx="20" cy="20" r="6" fill="#ff5f58"/><circle cx="40" cy="20" r="6" fill="#ffbd2e"/><circle cx="60" cy="20" r="6" fill="#18c132"/></svg><svg height="521.04" viewBox="0 0 80 52.104" width="800" x="15" xmlns="http://www.w3.org/2000/svg" xmlns:xlink="http://www.w3.org/1999/xlink" y="50"><style>@keyframes p{0%{transform:translateX(0)}4.48%{transform:translateX(-80px)}4.51%{transform:translateX(-160px)}4.52%{transform:translateX(-240px)}17.69%{transform:translateX(-320px)}19.08%{transform:translateX(-400px)}20.41%{transform:translateX(-480px)}21.58%{transform:translateX(-560px)}24.34%{transform:translateX(-640px)}47.01%{transform:translateX(-720px)}47.02%{transform:translateX(-800px)}47.51%{transform:translateX(-880px)}47.6%{transform:translateX(-960px)}47.61%{transform:translateX(-1040px)}54.66%{transform:translateX(-1120px)}64.37%{transform:translateX(-1200px)}74.79%{transform:translateX(-1280px)}74.94%{transform:translateX(-1360px)}75%{transform:translateX(-1440px)}75.01%{transform:translateX(-1520px)}88.67%{transform:translateX(-1600px)}89.46%{transform:translateX(-1680px)}90.46%{transform:translateX(-1760px)}91.46%{transform:translateX(-1840px)}95.13%{transform:translateX(-1920px)}96.16%{transform:translateX(-2000px)}98.68%{transform:translateX(-2080px)}to{transform:translateX(-2160px)}}.a{fill:#282d35}.g{fill:#b9c0cb}.h{font-weight:700}.h,.i{fill:#71bef2}.k{fill:#b9bfca}.l{fill:#6f7783}.m{fill:#fff}</style><g font-size="1.67" font-family="Monaco,Consolas,Menlo,'Bitstream Vera Sans Mono','Powerline Symbols',monospace"><defs><symbol id="1"><text y="1.67" fill="#a8cc8c" font-weight="700">pi@alfred_assistant</text><text x="19.038" y="1.67" class="g">:</text><text x="20.04" y="1.67" class="h">~/wconnect</text><text x="31.062" y="1.67" class="h">$</text><text x="33.066" y="1.67" class="g">./dist/wconnect</text></symbol><symbol id="2"><path class="i" d="M0 0h80v2.171H0z"/><text y="1.67" class="j"></text></symbol><symbol id="3"><path class="i" d="M0 0h16v2.171H0z"/><text y="1.67" class="j"></text><path class="k" d="M16.032 0h48v2.171h-48z"/><text x="16.032" y="1.67" class="j">Select an Interface:</text><path class="i" d="M64.128 0h16v2.171h-16z"/><text x="64.128" y="1.67" class="j"></text></symbol><symbol id="4"><path class="i" d="M0 0h16v2.171H0z"/><text y="1.67" class="j"></text><path class="k" d="M16.032 0h48v2.171h-48z"/><text x="16.032" y="1.67" class="j"></text><path class="i" d="M64.128 0h16v2.171h-16z"/><text x="64.128" y="1.67" class="j"></text></symbol><symbol id="5"><path class="i" d="M0 0h16v2.171H0z"/><text y="1.67" class="j"></text><path class="k" d="M16.032 0h2v2.171h-2z"/><text x="16.032" y="1.67" class="j"></text><path class="g" d="M18.036 0h44v2.171h-44z"/><text x="18.036" y="1.67" class="a">&lt; docker0 &gt;</text><path class="k" d="M62.124 0h2v2.171h-2z"/><text x="62.124" y="1.67" class="j"></text><path class="i" d="M64.128 0h16v2.171h-16z"/><text x="64.128" y="1.67" class="j"></text></symbol><symbol id="6"><path class="i" d="M0 0h16v2.171H0z"/><text y="1.67" class="j"></text><path class="k" d="M16.032 0h48v2.171h-48z"/><text x="16.032" y="1.67" class="j">&lt; eth0 &gt;</text><path class="i" d="M64.128 0h16v2.171h-16z"/><text x="64.128" y="1.67" class="j"></text></symbol><symbol id="7"><path class="i" d="M0 0h16v2.171H0z"/><text y="1.67" class="j"></text><path class="k" d="M16.032 0h48v2.171h-48z"/><text x="16.032" y="1.67" class="j">&lt; lo &gt;</text><path class="i" d="M64.128 0h16v2.171h-16z"/><text x="64.128" y="1.67" class="j"></text></symbol><symbol id="8"><path class="i" d="M0 0h16v2.171H0z"/><text y="1.67" class="j"></text><path class="k" d="M16.032 0h48v2.171h-48z"/><text x="16.032" y="1.67" class="j">&lt; vetha0f785f &gt;</text><path class="i" d="M64.128 0h16v2.171h-16z"/><text x="64.128" y="1.67" class="j"></text></symbol><symbol id="9"><path class="i" d="M0 0h16v2.171H0z"/><text y="1.67" class="j"></text><path class="k" d="M16.032 0h48v2.171h-48z"/><text x="16.032" y="1.67" class="j">&lt; wlan0 &gt;</text><path class="i" d="M64.128 0h16v2.171h-16z"/><text x="64.128" y="1.67" class="j"></text></symbol><symbol id="10"><path class="i" d="M0 0h16v2.171H0z"/><text y="1.67" class="j"></text><path class="k" d="M16.032 0h48v2.171h-48z"/><text x="16.032" y="1.67" class="j">&lt; docker0 &gt;</text><path class="i" d="M64.128 0h16v2.171h-16z"/><text x="64.128" y="1.67" class="j"></text></symbol><symbol id="11"><text y="1.67" class="g">----=====SSIDS=====-----</text></symbol><symbol id="12"><text y="1.67" class="g">[&apos;TC8717TD4&apos;,</text><text x="14.028" y="1.67" class="g">&apos;dnaWifi&apos;,</text><text x="25.05" y="1.67" class="g">&apos;025705972&apos;,</text><text x="38.076" y="1.67" class="g">&apos;dnawifi_5GHz&apos;,</text><text x="54.108" y="1.67" class="g">&apos;TC8717TD4-5G&apos;,</text><text x="70.14" y="1.67" class="g">&apos;WIFIB7E1F</text></symbol><symbol id="13"><text y="1.67" class="g">B-5G&apos;,</text><text x="7.014" y="1.67" class="g">&apos;TC8717TE6-5G&apos;,</text><text x="23.046" y="1.67" class="g">&apos;TG862GE2&apos;,</text><text x="35.07" y="1.67" class="g">&apos;LABEAU&apos;,</text><text x="45.09" y="1.67" class="g">&apos;jaguarpaw&apos;,</text><text x="58.116" y="1.67" class="g">&apos;TC8717TE6&apos;,</text><text x="71.142" y="1.67" class="g">&apos;MySpectr</text></symbol><symbol id="14"><text y="1.67" class="g">umWiFi38-2G&apos;,</text><text x="14.028" y="1.67" class="g">&apos;WIFIE98EFA&apos;,</text><text x="28.056" y="1.67" class="g">&apos;ryanliu1&apos;,</text><text x="40.08" y="1.67" class="g">&apos;DIRECT-6E-HP</text><text x="54.108" y="1.67" class="g">OfficeJet</text><text x="64.128" y="1.67" class="g">Pro</text><text x="68.136" y="1.67" class="g">6960&apos;]</text></symbol><symbol id="15"><path class="i" d="M0 0h16v2.171H0z"/><text y="1.67" class="j"></text><path class="k" d="M16.032 0h48v2.171h-48z"/><text x="16.032" y="1.67" class="j">Select SSID:</text><path class="i" d="M64.128 0h16v2.171h-16z"/><text x="64.128" y="1.67" class="j"></text></symbol><symbol id="16"><path class="i" d="M0 0h16v2.171H0z"/><text y="1.67" class="j"></text><path class="k" d="M16.032 0h2v2.171h-2z"/><text x="16.032" y="1.67" class="j"></text><path class="g" d="M18.036 0h44v2.171h-44z"/><text x="18.036" y="1.67" class="a">&lt; TC8717TD4 &gt;</text><path class="k" d="M62.124 0h2v2.171h-2z"/><text x="62.124" y="1.67" class="j"></text><path class="i" d="M64.128 0h16v2.171h-16z"/><text x="64.128" y="1.67" class="j"></text></symbol><symbol id="17"><path class="i" d="M0 0h16v2.171H0z"/><text y="1.67" class="j"></text><path class="k" d="M16.032 0h48v2.171h-48z"/><text x="16.032" y="1.67" class="j">&lt; dnaWifi &gt;</text><path class="i" d="M64.128 0h16v2.171h-16z"/><text x="64.128" y="1.67" class="j"></text></symbol><symbol id="18"><path class="i" d="M0 0h16v2.171H0z"/><text y="1.67" class="j"></text><path class="k" d="M16.032 0h48v2.171h-48z"/><text x="16.032" y="1.67" class="j">&lt; 025705972 &gt;</text><path class="i" d="M64.128 0h16v2.171h-16z"/><text x="64.128" y="1.67" class="j"></text></symbol><symbol id="19"><path class="i" d="M0 0h16v2.171H0z"/><text y="1.67" class="j"></text><path class="k" d="M16.032 0h48v2.171h-48z"/><text x="16.032" y="1.67" class="j">&lt; dnawifi_5GHz &gt;</text><path class="i" d="M64.128 0h16v2.171h-16z"/><text x="64.128" y="1.67" class="j"></text></symbol><symbol id="20"><path class="i" d="M0 0h16v2.171H0z"/><text y="1.67" class="j"></text><path class="k" d="M16.032 0h48v2.171h-48z"/><text x="16.032" y="1.67" class="j">&lt; TC8717TD4-5G &gt;</text><path class="i" d="M64.128 0h16v2.171h-16z"/><text x="64.128" y="1.67" class="j"></text></symbol><symbol id="21"><path class="i" d="M0 0h16v2.171H0z"/><text y="1.67" class="j"></text><path class="k" d="M16.032 0h48v2.171h-48z"/><text x="16.032" y="1.67" class="j">&lt; WIFIB7E1FB-5G &gt;</text><path class="i" d="M64.128 0h16v2.171h-16z"/><text x="64.128" y="1.67" class="j"></text></symbol><symbol id="22"><path class="i" d="M0 0h16v2.171H0z"/><text y="1.67" class="j"></text><path class="k" d="M16.032 0h48v2.171h-48z"/><text x="16.032" y="1.67" class="j">&lt; TC8717TE6-5G &gt;</text><path class="i" d="M64.128 0h16v2.171h-16z"/><text x="64.128" y="1.67" class="j"></text></symbol><symbol id="23"><path class="i" d="M0 0h16v2.171H0z"/><text y="1.67" class="j"></text><path class="k" d="M16.032 0h48v2.171h-48z"/><text x="16.032" y="1.67" class="j">&lt; TG862GE2 &gt;</text><path class="i" d="M64.128 0h16v2.171h-16z"/><text x="64.128" y="1.67" class="j"></text></symbol><symbol id="24"><path class="i" d="M0 0h16v2.171H0z"/><text y="1.67" class="j"></text><path class="k" d="M16.032 0h48v2.171h-48z"/><text x="16.032" y="1.67" class="j">&lt; LABEAU &gt;</text><path class="i" d="M64.128 0h16v2.171h-16z"/><text x="64.128" y="1.67" class="j"></text></symbol><symbol id="25"><path class="i" d="M0 0h16v2.171H0z"/><text y="1.67" class="j"></text><path class="k" d="M16.032 0h48v2.171h-48z"/><text x="16.032" y="1.67" class="j">&lt; jaguarpaw &gt;</text><path class="i" d="M64.128 0h16v2.171h-16z"/><text x="64.128" y="1.67" class="j"></text></symbol><symbol id="26"><path class="i" d="M0 0h16v2.171H0z"/><text y="1.67" class="j"></text><path class="k" d="M16.032 0h48v2.171h-48z"/><text x="16.032" y="1.67" class="j">&lt; TC8717TE6 &gt;</text><path class="i" d="M64.128 0h16v2.171h-16z"/><text x="64.128" y="1.67" class="j"></text></symbol><symbol id="27"><path class="i" d="M0 0h16v2.171H0z"/><text y="1.67" class="j"></text><path class="k" d="M16.032 0h48v2.171h-48z"/><text x="16.032" y="1.67" class="j">&lt; MySpectrumWiFi38-2G &gt;</text><path class="i" d="M64.128 0h16v2.171h-16z"/><text x="64.128" y="1.67" class="j"></text></symbol><symbol id="28"><path class="i" d="M0 0h16v2.171H0z"/><text y="1.67" class="j"></text><path class="k" d="M16.032 0h48v2.171h-48z"/><text x="16.032" y="1.67" class="j">Password:</text><path class="i" d="M64.128 0h16v2.171h-16z"/><text x="64.128" y="1.67" class="j"></text></symbol><symbol id="29"><path class="i" d="M0 0h16v2.171H0z"/><text y="1.67" class="j"></text><path class="k" d="M16.032 0h2v2.171h-2z"/><text x="16.032" y="1.67" class="j"></text><path class="l" d="M18.036 0h44v2.171h-44z"/><text x="18.036" y="1.67" class="m"></text><path class="k" d="M62.124 0h2v2.171h-2z"/><text x="62.124" y="1.67" class="j"></text><path class="i" d="M64.128 0h16v2.171h-16z"/><text x="64.128" y="1.67" class="j"></text></symbol><symbol id="30"><path class="i" d="M0 0h16v2.171H0z"/><text y="1.67" class="j"></text><path class="k" d="M16.032 0h48v2.171h-48z"/><text x="16.032" y="1.67" class="j">&lt; Ok &gt;</text><path class="i" d="M64.128 0h16v2.171h-16z"/><text x="64.128" y="1.67" class="j"></text></symbol><symbol id="31"><path class="i" d="M0 0h16v2.171H0z"/><text y="1.67" class="j"></text><path class="k" d="M16.032 0h48v2.171h-48z"/><text x="16.032" y="1.67" class="j">&lt; Cancel &gt;</text><path class="i" d="M64.128 0h16v2.171h-16z"/><text x="64.128" y="1.67" class="j"></text></symbol><symbol id="a"><path fill="transparent" d="M0 0h80v25H0z"/></symbol><symbol id="b"><path fill="#6f7683" d="M0 0h1.102v2.171H0z"/></symbol></defs><path class="a" d="M0 0h80v52.104H0z"/><g style="animation-duration:18.463496000000003s;animation-iteration-count:infinite;animation-name:p;animation-timing-function:steps(1,end)"><svg width="2240"><svg><use xlink:href="#a"/><use xlink:href="#b" x="-.004" y="2.146"/><use xlink:href="#1"/></svg><svg x="80"><use xlink:href="#a"/><use xlink:href="#b" x="-.004" y="2.146"/></svg><svg x="160"><use xlink:href="#a"/><use xlink:href="#2"/><use xlink:href="#2" y="2.171"/><use xlink:href="#2" y="4.342"/><use xlink:href="#2" y="6.513"/><use xlink:href="#2" y="8.684"/><use xlink:href="#3" y="10.855"/><use xlink:href="#4" y="13.026"/><use xlink:href="#5" y="15.197"/><use xlink:href="#6" y="17.368"/><use xlink:href="#7" y="19.539"/><use xlink:href="#8" y="21.71"/><use xlink:href="#9" y="23.881"/><use xlink:href="#4" y="26.052"/><path class="i" d="M0 28.223h16v2.171H0z"/><text y="29.893" class="j"></text><path class="k" d="M16.032 28.223h3v2.171h-3z"/><text x="16.032" y="29.893" class="j"></text></svg><svg x="240"><use xlink:href="#a"/><use xlink:href="#b" x="19.996" y="15.172"/><use xlink:href="#2"/><use xlink:href="#2" y="2.171"/><use xlink:href="#2" y="4.342"/><use xlink:href="#2" y="6.513"/><use xlink:href="#2" y="8.684"/><use xlink:href="#3" y="10.855"/><use xlink:href="#4" y="13.026"/><use xlink:href="#5" y="15.197"/><use xlink:href="#6" y="17.368"/><use xlink:href="#7" y="19.539"/><use xlink:href="#8" y="21.71"/><use xlink:href="#9" y="23.881"/><use xlink:href="#4" y="26.052"/><use xlink:href="#4" y="28.223"/><use xlink:href="#4" y="30.394"/><use xlink:href="#4" y="32.565"/><use xlink:href="#4" y="34.736"/><use xlink:href="#4" y="36.907"/><use xlink:href="#4" y="39.078"/><use xlink:href="#2" y="41.249"/><use xlink:href="#2" y="43.42"/><use xlink:href="#2" y="45.591"/><use xlink:href="#2" y="47.762"/><use xlink:href="#2" y="49.933"/></svg><svg x="320"><use xlink:href="#a"/><use xlink:href="#b" x="19.996" y="17.343"/><use xlink:href="#2"/><use xlink:href="#2" y="2.171"/><use xlink:href="#2" y="4.342"/><use xlink:href="#2" y="6.513"/><use xlink:href="#2" y="8.684"/><use xlink:href="#3" y="10.855"/><use xlink:href="#4" y="13.026"/><use xlink:href="#10" y="15.197"/><path class="i" d="M0 17.368h16v2.171H0z"/><text y="19.038" class="j"></text><path class="k" d="M16.032 17.368h2v2.171h-2z"/><text x="16.032" y="19.038" class="j"></text><path class="g" d="M18.036 17.368h44v2.171h-44z"/><text x="18.036" y="19.038" class="a">&lt; eth0 &gt;</text><path class="k" d="M62.124 17.368h2v2.171h-2z"/><text x="62.124" y="19.038" class="j"></text><path class="i" d="M64.128 17.368h16v2.171h-16z"/><text x="64.128" y="19.038" class="j"></text><use xlink:href="#7" y="19.539"/><use xlink:href="#8" y="21.71"/><use xlink:href="#9" y="23.881"/><use xlink:href="#4" y="26.052"/><use xlink:href="#4" y="28.223"/><use xlink:href="#4" y="30.394"/><use xlink:href="#4" y="32.565"/><use xlink:href="#4" y="34.736"/><use xlink:href="#4" y="36.907"/><use xlink:href="#4" y="39.078"/><use xlink:href="#2" y="41.249"/><use xlink:href="#2" y="43.42"/><use xlink:href="#2" y="45.591"/><use xlink:href="#2" y="47.762"/><use xlink:href="#2" y="49.933"/></svg><svg x="400"><use xlink:href="#a"/><use xlink:href="#b" x="19.996" y="19.514"/><use xlink:href="#2"/><use xlink:href="#2" y="2.171"/><use xlink:href="#2" y="4.342"/><use xlink:href="#2" y="6.513"/><use xlink:href="#2" y="8.684"/><use xlink:href="#3" y="10.855"/><use xlink:href="#4" y="13.026"/><use xlink:href="#10" y="15.197"/><use xlink:href="#6" y="17.368"/><path class="i" d="M0 19.539h16v2.171H0z"/><text y="21.209" class="j"></text><path class="k" d="M16.032 19.539h2v2.171h-2z"/><text x="16.032" y="21.209" class="j"></text><path class="g" d="M18.036 19.539h44v2.171h-44z"/><text x="18.036" y="21.209" class="a">&lt; lo &gt;</text><path class="k" d="M62.124 19.539h2v2.171h-2z"/><text x="62.124" y="21.209" class="j"></text><path class="i" d="M64.128 19.539h16v2.171h-16z"/><text x="64.128" y="21.209" class="j"></text><use xlink:href="#8" y="21.71"/><use xlink:href="#9" y="23.881"/><use xlink:href="#4" y="26.052"/><use xlink:href="#4" y="28.223"/><use xlink:href="#4" y="30.394"/><use xlink:href="#4" y="32.565"/><use xlink:href="#4" y="34.736"/><use xlink:href="#4" y="36.907"/><use xlink:href="#4" y="39.078"/><use xlink:href="#2" y="41.249"/><use xlink:href="#2" y="43.42"/><use xlink:href="#2" y="45.591"/><use xlink:href="#2" y="47.762"/><use xlink:href="#2" y="49.933"/></svg><svg x="480"><use xlink:href="#a"/><use xlink:href="#b" x="19.996" y="21.685"/><use xlink:href="#2"/><use xlink:href="#2" y="2.171"/><use xlink:href="#2" y="4.342"/><use xlink:href="#2" y="6.513"/><use xlink:href="#2" y="8.684"/><use xlink:href="#3" y="10.855"/><use xlink:href="#4" y="13.026"/><use xlink:href="#10" y="15.197"/><use xlink:href="#6" y="17.368"/><use xlink:href="#7" y="19.539"/><path class="i" d="M0 21.71h16v2.171H0z"/><text y="23.38" class="j"></text><path class="k" d="M16.032 21.71h2v2.171h-2z"/><text x="16.032" y="23.38" class="j"></text><path class="g" d="M18.036 21.71h44v2.171h-44z"/><text x="18.036" y="23.38" class="a">&lt; vetha0f785f &gt;</text><path class="k" d="M62.124 21.71h2v2.171h-2z"/><text x="62.124" y="23.38" class="j"></text><path class="i" d="M64.128 21.71h16v2.171h-16z"/><text x="64.128" y="23.38" class="j"></text><use xlink:href="#9" y="23.881"/><use xlink:href="#4" y="26.052"/><use xlink:href="#4" y="28.223"/><use xlink:href="#4" y="30.394"/><use xlink:href="#4" y="32.565"/><use xlink:href="#4" y="34.736"/><use xlink:href="#4" y="36.907"/><use xlink:href="#4" y="39.078"/><use xlink:href="#2" y="41.249"/><use xlink:href="#2" y="43.42"/><use xlink:href="#2" y="45.591"/><use xlink:href="#2" y="47.762"/><use xlink:href="#2" y="49.933"/></svg><svg x="560"><use xlink:href="#a"/><use xlink:href="#b" x="19.996" y="23.856"/><use xlink:href="#2"/><use xlink:href="#2" y="2.171"/><use xlink:href="#2" y="4.342"/><use xlink:href="#2" y="6.513"/><use xlink:href="#2" y="8.684"/><use xlink:href="#3" y="10.855"/><use xlink:href="#4" y="13.026"/><use xlink:href="#10" y="15.197"/><use xlink:href="#6" y="17.368"/><use xlink:href="#7" y="19.539"/><use xlink:href="#8" y="21.71"/><path class="i" d="M0 23.881h16v2.171H0z"/><text y="25.551" class="j"></text><path class="k" d="M16.032 23.881h2v2.171h-2z"/><text x="16.032" y="25.551" class="j"></text><path class="g" d="M18.036 23.881h44v2.171h-44z"/><text x="18.036" y="25.551" class="a">&lt; wlan0 &gt;</text><path class="k" d="M62.124 23.881h2v2.171h-2z"/><text x="62.124" y="25.551" class="j"></text><path class="i" d="M64.128 23.881h16v2.171h-16z"/><text x="64.128" y="25.551" class="j"></text><use xlink:href="#4" y="26.052"/><use xlink:href="#4" y="28.223"/><use xlink:href="#4" y="30.394"/><use xlink:href="#4" y="32.565"/><use xlink:href="#4" y="34.736"/><use xlink:href="#4" y="36.907"/><use xlink:href="#4" y="39.078"/><use xlink:href="#2" y="41.249"/><use xlink:href="#2" y="43.42"/><use xlink:href="#2" y="45.591"/><use xlink:href="#2" y="47.762"/><use xlink:href="#2" y="49.933"/></svg><svg x="640"><use xlink:href="#a"/><use xlink:href="#b" x="-.004" y="2.146"/><use xlink:href="#1"/></svg><svg x="720"><use xlink:href="#a"/><use xlink:href="#b" x="-.004" y="4.317"/><use xlink:href="#1"/><use xlink:href="#11" y="2.171"/></svg><svg x="800"><use xlink:href="#a"/><use xlink:href="#b" x="-.004" y="10.83"/><use xlink:href="#1"/><use xlink:href="#11" y="2.171"/><use xlink:href="#12" y="4.342"/><use xlink:href="#13" y="6.513"/><use xlink:href="#14" y="8.684"/></svg><svg x="880"><use xlink:href="#a"/><use xlink:href="#b" x="-.004" y="10.83"/></svg><svg x="960"><use xlink:href="#a"/><use xlink:href="#2"/><use xlink:href="#2" y="2.171"/><use xlink:href="#2" y="4.342"/><use xlink:href="#2" y="6.513"/><use xlink:href="#2" y="8.684"/><use xlink:href="#15" y="10.855"/><use xlink:href="#4" y="13.026"/><use xlink:href="#16" y="15.197"/><use xlink:href="#17" y="17.368"/><use xlink:href="#18" y="19.539"/><use xlink:href="#19" y="21.71"/><use xlink:href="#20" y="23.881"/><use xlink:href="#21" y="26.052"/><path class="i" d="M0 28.223h16v2.171H0z"/><text y="29.893" class="j"></text><path class="k" d="M16.032 28.223h3v2.171h-3z"/><text x="16.032" y="29.893" class="j">&lt;</text></svg><svg x="1040"><use xlink:href="#a"/><use xlink:href="#b" x="19.996" y="15.172"/><use xlink:href="#2"/><use xlink:href="#2" y="2.171"/><use xlink:href="#2" y="4.342"/><use xlink:href="#2" y="6.513"/><use xlink:href="#2" y="8.684"/><use xlink:href="#15" y="10.855"/><use xlink:href="#4" y="13.026"/><use xlink:href="#16" y="15.197"/><use xlink:href="#17" y="17.368"/><use xlink:href="#18" y="19.539"/><use xlink:href="#19" y="21.71"/><use xlink:href="#20" y="23.881"/><use xlink:href="#21" y="26.052"/><use xlink:href="#22" y="28.223"/><use xlink:href="#23" y="30.394"/><use xlink:href="#24" y="32.565"/><use xlink:href="#25" y="34.736"/><use xlink:href="#26" y="36.907"/><use xlink:href="#27" y="39.078"/><use xlink:href="#2" y="41.249"/><use xlink:href="#2" y="43.42"/><use xlink:href="#2" y="45.591"/><use xlink:href="#2" y="47.762"/><use xlink:href="#2" y="49.933"/></svg><svg x="1120"><use xlink:href="#a"/><use xlink:href="#b" x="19.996" y="17.343"/><use xlink:href="#2"/><use xlink:href="#2" y="2.171"/><use xlink:href="#2" y="4.342"/><use xlink:href="#2" y="6.513"/><use xlink:href="#2" y="8.684"/><use xlink:href="#15" y="10.855"/><use xlink:href="#4" y="13.026"/><path class="i" d="M0 15.197h16v2.171H0z"/><text y="16.867" class="j"></text><path class="k" d="M16.032 15.197h48v2.171h-48z"/><text x="16.032" y="16.867" class="j">&lt; TC8717TD4 &gt;</text><path class="i" d="M64.128 15.197h16v2.171h-16z"/><text x="64.128" y="16.867" class="j"></text><path class="i" d="M0 17.368h16v2.171H0z"/><text y="19.038" class="j"></text><path class="k" d="M16.032 17.368h2v2.171h-2z"/><text x="16.032" y="19.038" class="j"></text><path class="g" d="M18.036 17.368h44v2.171h-44z"/><text x="18.036" y="19.038" class="a">&lt; dnaWifi &gt;</text><path class="k" d="M62.124 17.368h2v2.171h-2z"/><text x="62.124" y="19.038" class="j"></text><path class="i" d="M64.128 17.368h16v2.171h-16z"/><text x="64.128" y="19.038" class="j"></text><use xlink:href="#18" y="19.539"/><use xlink:href="#19" y="21.71"/><use xlink:href="#20" y="23.881"/><use xlink:href="#21" y="26.052"/><use xlink:href="#22" y="28.223"/><use xlink:href="#23" y="30.394"/><use xlink:href="#24" y="32.565"/><use xlink:href="#25" y="34.736"/><use xlink:href="#26" y="36.907"/><use xlink:href="#27" y="39.078"/><use xlink:href="#2" y="41.249"/><use xlink:href="#2" y="43.42"/><use xlink:href="#2" y="45.591"/><use xlink:href="#2" y="47.762"/><use xlink:href="#2" y="49.933"/></svg><svg x="1200"><use xlink:href="#a"/><use xlink:href="#b" x="19.996" y="15.172"/><use xlink:href="#2"/><use xlink:href="#2" y="2.171"/><use xlink:href="#2" y="4.342"/><use xlink:href="#2" y="6.513"/><use xlink:href="#2" y="8.684"/><use xlink:href="#15" y="10.855"/><use xlink:href="#4" y="13.026"/><use xlink:href="#16" y="15.197"/><use xlink:href="#17" y="17.368"/><use xlink:href="#18" y="19.539"/><use xlink:href="#19" y="21.71"/><use xlink:href="#20" y="23.881"/><use xlink:href="#21" y="26.052"/><use xlink:href="#22" y="28.223"/><use xlink:href="#23" y="30.394"/><use xlink:href="#24" y="32.565"/><use xlink:href="#25" y="34.736"/><use xlink:href="#26" y="36.907"/><use xlink:href="#27" y="39.078"/><use xlink:href="#2" y="41.249"/><use xlink:href="#2" y="43.42"/><use xlink:href="#2" y="45.591"/><use xlink:href="#2" y="47.762"/><use xlink:href="#2" y="49.933"/></svg><svg x="1280"><use xlink:href="#a"/><use xlink:href="#b" x="-.004" y="10.83"/><use xlink:href="#1"/><use xlink:href="#11" y="2.171"/><use xlink:href="#12" y="4.342"/><use xlink:href="#13" y="6.513"/><use xlink:href="#14" y="8.684"/></svg><svg x="1360"><use xlink:href="#a"/><use xlink:href="#b" x="-.004" y="10.83"/></svg><svg x="1440"><use xlink:href="#a"/><use xlink:href="#2"/><use xlink:href="#2" y="2.171"/><use xlink:href="#2" y="4.342"/><use xlink:href="#2" y="6.513"/><use xlink:href="#2" y="8.684"/><use xlink:href="#4" y="10.855"/><use xlink:href="#4" y="13.026"/><use xlink:href="#4" y="15.197"/><use xlink:href="#4" y="17.368"/><use xlink:href="#4" y="19.539"/><use xlink:href="#28" y="21.71"/><use xlink:href="#29" y="23.881"/><use xlink:href="#30" y="26.052"/><path class="i" d="M0 28.223h16v2.171H0z"/><text y="29.893" class="j"></text><path class="k" d="M16.032 28.223h4v2.171h-4z"/><text x="16.032" y="29.893" class="j">&lt;</text></svg><svg x="1520"><use xlink:href="#a"/><use xlink:href="#b" x="39.996" y="23.856"/><use xlink:href="#2"/><use xlink:href="#2" y="2.171"/><use xlink:href="#2" y="4.342"/><use xlink:href="#2" y="6.513"/><use xlink:href="#2" y="8.684"/><use xlink:href="#4" y="10.855"/><use xlink:href="#4" y="13.026"/><use xlink:href="#4" y="15.197"/><use xlink:href="#4" y="17.368"/><use xlink:href="#4" y="19.539"/><use xlink:href="#28" y="21.71"/><use xlink:href="#29" y="23.881"/><use xlink:href="#30" y="26.052"/><use xlink:href="#31" y="28.223"/><use xlink:href="#4" y="30.394"/><use xlink:href="#4" y="32.565"/><use xlink:href="#4" y="34.736"/><use xlink:href="#4" y="36.907"/><use xlink:href="#4" y="39.078"/><use xlink:href="#2" y="41.249"/><use xlink:href="#2" y="43.42"/><use xlink:href="#2" y="45.591"/><use xlink:href="#2" y="47.762"/><use xlink:href="#2" y="49.933"/></svg><svg x="1600"><use xlink:href="#a"/><use xlink:href="#b" x="40.996" y="23.856"/><use xlink:href="#2"/><use xlink:href="#2" y="2.171"/><use xlink:href="#2" y="4.342"/><use xlink:href="#2" y="6.513"/><use xlink:href="#2" y="8.684"/><use xlink:href="#4" y="10.855"/><use xlink:href="#4" y="13.026"/><use xlink:href="#4" y="15.197"/><use xlink:href="#4" y="17.368"/><use xlink:href="#4" y="19.539"/><use xlink:href="#28" y="21.71"/><path class="i" d="M0 23.881h16v2.171H0z"/><text y="25.551" class="j"></text><path class="k" d="M16.032 23.881h2v2.171h-2z"/><text x="16.032" y="25.551" class="j"></text><path class="l" d="M18.036 23.881h44v2.171h-44z"/><text x="18.036" y="25.551" class="m">*</text><path class="k" d="M62.124 23.881h2v2.171h-2z"/><text x="62.124" y="25.551" class="j"></text><path class="i" d="M64.128 23.881h16v2.171h-16z"/><text x="64.128" y="25.551" class="j"></text><use xlink:href="#30" y="26.052"/><use xlink:href="#31" y="28.223"/><use xlink:href="#4" y="30.394"/><use xlink:href="#4" y="32.565"/><use xlink:href="#4" y="34.736"/><use xlink:href="#4" y="36.907"/><use xlink:href="#4" y="39.078"/><use xlink:href="#2" y="41.249"/><use xlink:href="#2" y="43.42"/><use xlink:href="#2" y="45.591"/><use xlink:href="#2" y="47.762"/><use xlink:href="#2" y="49.933"/></svg><svg x="1680"><use xlink:href="#a"/><use xlink:href="#b" x="40.996" y="23.856"/><use xlink:href="#2"/><use xlink:href="#2" y="2.171"/><use xlink:href="#2" y="4.342"/><use xlink:href="#2" y="6.513"/><use xlink:href="#2" y="8.684"/><use xlink:href="#4" y="10.855"/><use xlink:href="#4" y="13.026"/><use xlink:href="#4" y="15.197"/><use xlink:href="#4" y="17.368"/><use xlink:href="#4" y="19.539"/><use xlink:href="#28" y="21.71"/><path class="i" d="M0 23.881h16v2.171H0z"/><text y="25.551" class="j"></text><path class="k" d="M16.032 23.881h2v2.171h-2z"/><text x="16.032" y="25.551" class="j"></text><path class="l" d="M18.036 23.881h44v2.171h-44z"/><text x="18.036" y="25.551" class="m">**</text><path class="k" d="M62.124 23.881h2v2.171h-2z"/><text x="62.124" y="25.551" class="j"></text><path class="i" d="M64.128 23.881h16v2.171h-16z"/><text x="64.128" y="25.551" class="j"></text><use xlink:href="#30" y="26.052"/><use xlink:href="#31" y="28.223"/><use xlink:href="#4" y="30.394"/><use xlink:href="#4" y="32.565"/><use xlink:href="#4" y="34.736"/><use xlink:href="#4" y="36.907"/><use xlink:href="#4" y="39.078"/><use xlink:href="#2" y="41.249"/><use xlink:href="#2" y="43.42"/><use xlink:href="#2" y="45.591"/><use xlink:href="#2" y="47.762"/><use xlink:href="#2" y="49.933"/></svg><svg x="1760"><use xlink:href="#a"/><use xlink:href="#b" x="41.996" y="23.856"/><use xlink:href="#2"/><use xlink:href="#2" y="2.171"/><use xlink:href="#2" y="4.342"/><use xlink:href="#2" y="6.513"/><use xlink:href="#2" y="8.684"/><use xlink:href="#4" y="10.855"/><use xlink:href="#4" y="13.026"/><use xlink:href="#4" y="15.197"/><use xlink:href="#4" y="17.368"/><use xlink:href="#4" y="19.539"/><use xlink:href="#28" y="21.71"/><path class="i" d="M0 23.881h16v2.171H0z"/><text y="25.551" class="j"></text><path class="k" d="M16.032 23.881h2v2.171h-2z"/><text x="16.032" y="25.551" class="j"></text><path class="l" d="M18.036 23.881h44v2.171h-44z"/><text x="18.036" y="25.551" class="m">***</text><path class="k" d="M62.124 23.881h2v2.171h-2z"/><text x="62.124" y="25.551" class="j"></text><path class="i" d="M64.128 23.881h16v2.171h-16z"/><text x="64.128" y="25.551" class="j"></text><use xlink:href="#30" y="26.052"/><use xlink:href="#31" y="28.223"/><use xlink:href="#4" y="30.394"/><use xlink:href="#4" y="32.565"/><use xlink:href="#4" y="34.736"/><use xlink:href="#4" y="36.907"/><use xlink:href="#4" y="39.078"/><use xlink:href="#2" y="41.249"/><use xlink:href="#2" y="43.42"/><use xlink:href="#2" y="45.591"/><use xlink:href="#2" y="47.762"/><use xlink:href="#2" y="49.933"/></svg><svg x="1840"><use xlink:href="#a"/><use xlink:href="#b" x="41.996" y="23.856"/><use xlink:href="#2"/><use xlink:href="#2" y="2.171"/><use xlink:href="#2" y="4.342"/><use xlink:href="#2" y="6.513"/><use xlink:href="#2" y="8.684"/><use xlink:href="#4" y="10.855"/><use xlink:href="#4" y="13.026"/><use xlink:href="#4" y="15.197"/><use xlink:href="#4" y="17.368"/><use xlink:href="#4" y="19.539"/><use xlink:href="#28" y="21.71"/><path class="i" d="M0 23.881h16v2.171H0z"/><text y="25.551" class="j"></text><path class="k" d="M16.032 23.881h2v2.171h-2z"/><text x="16.032" y="25.551" class="j"></text><path class="l" d="M18.036 23.881h44v2.171h-44z"/><text x="18.036" y="25.551" class="m">****</text><path class="k" d="M62.124 23.881h2v2.171h-2z"/><text x="62.124" y="25.551" class="j"></text><path class="i" d="M64.128 23.881h16v2.171h-16z"/><text x="64.128" y="25.551" class="j"></text><use xlink:href="#30" y="26.052"/><use xlink:href="#31" y="28.223"/><use xlink:href="#4" y="30.394"/><use xlink:href="#4" y="32.565"/><use xlink:href="#4" y="34.736"/><use xlink:href="#4" y="36.907"/><use xlink:href="#4" y="39.078"/><use xlink:href="#2" y="41.249"/><use xlink:href="#2" y="43.42"/><use xlink:href="#2" y="45.591"/><use xlink:href="#2" y="47.762"/><use xlink:href="#2" y="49.933"/></svg><svg x="1920"><use xlink:href="#a"/><use xlink:href="#b" x="42.996" y="23.856"/><use xlink:href="#2"/><use xlink:href="#2" y="2.171"/><use xlink:href="#2" y="4.342"/><use xlink:href="#2" y="6.513"/><use xlink:href="#2" y="8.684"/><use xlink:href="#4" y="10.855"/><use xlink:href="#4" y="13.026"/><use xlink:href="#4" y="15.197"/><use xlink:href="#4" y="17.368"/><use xlink:href="#4" y="19.539"/><use xlink:href="#28" y="21.71"/><path class="i" d="M0 23.881h16v2.171H0z"/><text y="25.551" class="j"></text><path class="k" d="M16.032 23.881h2v2.171h-2z"/><text x="16.032" y="25.551" class="j"></text><path class="l" d="M18.036 23.881h44v2.171h-44z"/><text x="18.036" y="25.551" class="m">*****</text><path class="k" d="M62.124 23.881h2v2.171h-2z"/><text x="62.124" y="25.551" class="j"></text><path class="i" d="M64.128 23.881h16v2.171h-16z"/><text x="64.128" y="25.551" class="j"></text><use xlink:href="#30" y="26.052"/><use xlink:href="#31" y="28.223"/><use xlink:href="#4" y="30.394"/><use xlink:href="#4" y="32.565"/><use xlink:href="#4" y="34.736"/><use xlink:href="#4" y="36.907"/><use xlink:href="#4" y="39.078"/><use xlink:href="#2" y="41.249"/><use xlink:href="#2" y="43.42"/><use xlink:href="#2" y="45.591"/><use xlink:href="#2" y="47.762"/><use xlink:href="#2" y="49.933"/></svg><svg x="2000"><use xlink:href="#a"/><use xlink:href="#b" x="42.996" y="23.856"/><use xlink:href="#2"/><use xlink:href="#2" y="2.171"/><use xlink:href="#2" y="4.342"/><use xlink:href="#2" y="6.513"/><use xlink:href="#2" y="8.684"/><use xlink:href="#4" y="10.855"/><use xlink:href="#4" y="13.026"/><use xlink:href="#4" y="15.197"/><use xlink:href="#4" y="17.368"/><use xlink:href="#4" y="19.539"/><use xlink:href="#28" y="21.71"/><path class="i" d="M0 23.881h16v2.171H0z"/><text y="25.551" class="j"></text><path class="k" d="M16.032 23.881h2v2.171h-2z"/><text x="16.032" y="25.551" class="j"></text><path class="l" d="M18.036 23.881h44v2.171h-44z"/><text x="18.036" y="25.551" class="m">******</text><path class="k" d="M62.124 23.881h2v2.171h-2z"/><text x="62.124" y="25.551" class="j"></text><path class="i" d="M64.128 23.881h16v2.171h-16z"/><text x="64.128" y="25.551" class="j"></text><use xlink:href="#30" y="26.052"/><use xlink:href="#31" y="28.223"/><use xlink:href="#4" y="30.394"/><use xlink:href="#4" y="32.565"/><use xlink:href="#4" y="34.736"/><use xlink:href="#4" y="36.907"/><use xlink:href="#4" y="39.078"/><use xlink:href="#2" y="41.249"/><use xlink:href="#2" y="43.42"/><use xlink:href="#2" y="45.591"/><use xlink:href="#2" y="47.762"/><use xlink:href="#2" y="49.933"/></svg><svg x="2080"><use xlink:href="#a"/><use xlink:href="#b" x="43.996" y="23.856"/><use xlink:href="#2"/><use xlink:href="#2" y="2.171"/><use xlink:href="#2" y="4.342"/><use xlink:href="#2" y="6.513"/><use xlink:href="#2" y="8.684"/><use xlink:href="#4" y="10.855"/><use xlink:href="#4" y="13.026"/><use xlink:href="#4" y="15.197"/><use xlink:href="#4" y="17.368"/><use xlink:href="#4" y="19.539"/><use xlink:href="#28" y="21.71"/><path class="i" d="M0 23.881h16v2.171H0z"/><text y="25.551" class="j"></text><path class="k" d="M16.032 23.881h2v2.171h-2z"/><text x="16.032" y="25.551" class="j"></text><path class="l" d="M18.036 23.881h44v2.171h-44z"/><text x="18.036" y="25.551" class="m">*******</text><path class="k" d="M62.124 23.881h2v2.171h-2z"/><text x="62.124" y="25.551" class="j"></text><path class="i" d="M64.128 23.881h16v2.171h-16z"/><text x="64.128" y="25.551" class="j"></text><use xlink:href="#30" y="26.052"/><use xlink:href="#31" y="28.223"/><use xlink:href="#4" y="30.394"/><use xlink:href="#4" y="32.565"/><use xlink:href="#4" y="34.736"/><use xlink:href="#4" y="36.907"/><use xlink:href="#4" y="39.078"/><use xlink:href="#2" y="41.249"/><use xlink:href="#2" y="43.42"/><use xlink:href="#2" y="45.591"/><use xlink:href="#2" y="47.762"/><use xlink:href="#2" y="49.933"/></svg><svg x="2160"><use xlink:href="#a"/><use xlink:href="#b" x="43.996" y="23.856"/><use xlink:href="#2"/><use xlink:href="#2" y="2.171"/><use xlink:href="#2" y="4.342"/><use xlink:href="#2" y="6.513"/><use xlink:href="#2" y="8.684"/><use xlink:href="#4" y="10.855"/><use xlink:href="#4" y="13.026"/><use xlink:href="#4" y="15.197"/><use xlink:href="#4" y="17.368"/><use xlink:href="#4" y="19.539"/><use xlink:href="#28" y="21.71"/><path class="i" d="M0 23.881h16v2.171H0z"/><text y="25.551" class="j"></text><path class="k" d="M16.032 23.881h2v2.171h-2z"/><text x="16.032" y="25.551" class="j"></text><path class="l" d="M18.036 23.881h44v2.171h-44z"/><text x="18.036" y="25.551" class="m">********</text><path class="k" d="M62.124 23.881h2v2.171h-2z"/><text x="62.124" y="25.551" class="j"></text><path class="i" d="M64.128 23.881h16v2.171h-16z"/><text x="64.128" y="25.551" class="j"></text><use xlink:href="#30" y="26.052"/><use xlink:href="#31" y="28.223"/><use xlink:href="#4" y="30.394"/><use xlink:href="#4" y="32.565"/><use xlink:href="#4" y="34.736"/><use xlink:href="#4" y="36.907"/><use xlink:href="#4" y="39.078"/><use xlink:href="#2" y="41.249"/><use xlink:href="#2" y="43.42"/><use xlink:href="#2" y="45.591"/><use xlink:href="#2" y="47.762"/><use xlink:href="#2" y="49.933"/></svg></svg></g></g></svg></svg>